<svg width="21" height="21" viewBox="0 0 21 21" fill="none" xmlns="http://www.w3.org/2000/svg">
<path d="M11.0792 0.000324488C5.55433 -0.0434067 1.04313 4.51226 0.998308 10.1746C0.962442 14.7057 3.79694 18.5708 7.75859 19.957C8.25781 20.0575 8.44365 19.7415 8.4458 19.4694C8.44773 19.2259 8.44451 18.5806 8.4471 17.7259C5.66063 18.3221 5.08977 16.3236 5.08977 16.3236C4.64415 15.1366 3.98917 14.8149 3.98917 14.8149C3.0884 14.1721 4.0641 14.1929 4.0641 14.1929C5.06767 14.2721 5.58736 15.2615 5.58736 15.2615C6.46658 16.8363 7.91929 16.3947 8.49301 16.1375C8.58826 15.4748 8.84932 15.0255 9.13718 14.7713C6.91845 14.4972 4.59133 13.597 4.62243 9.66851C4.63128 8.54943 5.02601 7.63775 5.67334 6.92547C5.56289 6.66547 5.23366 5.62024 5.78232 4.21238C5.78232 4.21238 6.62196 3.94424 8.52391 5.2854C9.32569 5.06392 10.1766 4.95761 11.0266 4.95912C11.8765 4.97106 12.7256 5.09083 13.5238 5.32498C15.4342 4.01399 16.2695 4.29539 16.2695 4.29539C16.7958 5.71175 16.4501 6.75164 16.348 7.00997C16.9798 7.73237 17.3601 8.65018 17.3512 9.76926C17.32 13.7082 14.9757 14.5566 12.7488 14.7912C13.0964 15.1018 13.4164 15.733 13.4088 16.6938C13.3979 18.0659 13.3767 19.1684 13.374 19.5014C13.3719 19.7701 13.5444 20.0923 14.0577 19.9938C18.069 18.6794 20.9619 14.8571 20.9977 10.3329C21.0425 4.67057 16.6015 0.0440358 11.0792 0.000324488Z" fill="#212121"/>
</svg>
