<svg width="22" height="22" viewBox="0 0 22 22" fill="none" xmlns="http://www.w3.org/2000/svg">
<path d="M14.6456 0.961489L7.14599 1.03964C3.69493 1.0756 0.925495 3.90337 0.961458 7.35443L1.03961 14.854C1.07557 18.3051 3.90333 21.0745 7.3544 21.0386L14.854 20.9604C18.3051 20.9244 21.0745 18.0967 21.0385 14.6456L20.9604 7.14602C20.9244 3.69496 18.0966 0.925527 14.6456 0.961489ZM19.1636 14.6652C19.1888 17.0775 17.2468 19.0604 14.8345 19.0855L7.33486 19.1637C4.92249 19.1888 2.93965 17.2469 2.91451 14.8345L2.83636 7.33489C2.81122 4.92252 4.75316 2.93968 7.16553 2.91454L14.6651 2.83639C17.0775 2.81125 19.0603 4.75319 19.0855 7.16556L19.1636 14.6652Z" fill="black"/>
<path d="M10.9479 6.00029C8.18678 6.02907 5.97148 8.29102 6.00025 11.0521C6.02902 13.8132 8.29098 16.0285 11.0521 15.9998C13.8132 15.971 16.0285 13.709 15.9997 10.9479C15.9709 8.18682 13.709 5.97152 10.9479 6.00029ZM11.0325 14.1249C9.31014 14.1428 7.8931 12.755 7.87515 11.0326C7.85719 9.30893 9.24501 7.89314 10.9674 7.87519C12.6898 7.85724 14.1068 9.2438 14.1248 10.9675C14.1428 12.6899 12.7549 14.1069 11.0325 14.1249Z" fill="black"/>
<path d="M16.3256 6.2355C16.6936 6.23167 16.9887 5.93029 16.9849 5.56235C16.9811 5.19441 16.6797 4.89925 16.3118 4.90308C15.9438 4.90692 15.6486 5.2083 15.6525 5.57624C15.6563 5.94417 15.9577 6.23934 16.3256 6.2355Z" fill="black"/>
</svg>
